<?xml version="1.0" encoding="UTF-8"?>
<!-- Created with Grafika (https://www.grafika.cc/) -->
<svg xmlns="http://www.w3.org/2000/svg" xmlns:svg="http://www.w3.org/2000/svg" xmlns:xlink="http://www.w3.org/1999/xlink" width="1093.74" height="1093.74" viewBox="0 0 1093.74 1093.74" preserveAspectRatio="xMidYMid meet">
	<defs>
		<linearGradient gradientUnits="userSpaceOnUse" gradientTransform="matrix(50.00000762939453, 50.00001907348633, -50.00001907348633, 50.00000762939453, -0.0000033378610169165768, -0.000015974044799804688)" spreadMethod="pad" id="gradient_1" x1="-1" y1="0" x2="1" y2="0">
			<stop offset="0%" stop-color="#115BDB" />
			<stop offset="50%" stop-color="#7953B8" />
			<stop offset="100%" stop-color="#F12395" />
		</linearGradient>
		<linearGradient gradientUnits="userSpaceOnUse" gradientTransform="matrix(304.6545104980469, 0, 0, 277.54998779296875, 4.154541015625, -213.94921875)" spreadMethod="pad" id="gradient_2" x1="-1" y1="0" x2="1" y2="0">
			<stop offset="0%" stop-color="#115BDB" />
			<stop offset="51.76%" stop-color="#7953B8" />
			<stop offset="100%" stop-color="#F12395" />
		</linearGradient>
	</defs>
	<g transform="matrix(1, 0, 0, 1, 902.0816650390625, 885.8084716796875)">
		<rect transform="matrix(10.937383651733398, 0, 0, 10.937383651733398, -355.2124328613281, -338.9392395019531)" x="-50" y="-50" width="100" height="100" rx="32" ry="32" opacity="0.2" style="fill:url(#gradient_1);" />
		<g transform="matrix(1, 0, 0, 1, -355.2118225097656, -338.9390869140625)">
			<path transform="matrix(1, 0, 0, 1, -4.155120849609375, 213.94985961914062)" d="M-299.8,-490.8 C-300.7,-490 -300.7,-205.5 -299.9,-205.5 C-298.8,-205.5 -294.2,-209.1 -198,-286 C-52.1,-402.5 -38.4,-413.6 -38.7,-414.4 C-38.9,-414.8 -60.4,-432.3 -86.6,-453.3 L-134.2,-491.5 L-216.7,-491.5 C-262.1,-491.5 -299.5,-491.2 -299.8,-490.8M114,-468.4 C98.1,-455.6 52.2,-419.1 12.1,-387.1 C-117.9,-283.4 -144.2,-262.5 -197,-220.4 C-225.6,-197.6 -260.2,-170 -274,-159 C-287.7,-148.1 -299.3,-138.7 -299.7,-138.1 C-300.1,-137.5 -300.5,-91.9 -300.5,-36.8 L-300.5,63.5 L-273.4,63.5 L-203.9,8 L-134.5,-47.5 L-134.5,-158 C-134.5,-218.8 -134.1,-268.5 -133.7,-268.5 C-133.3,-268.5 -125.7,-262.8 -117,-255.7 C-108.2,-248.7 -77.2,-223.9 -48.2,-200.7 L4.6,-158.4 L156.4,-279.9 C240,-346.7 308.5,-401.9 308.6,-402.4 C308.8,-403 308.9,-423.3 308.7,-447.5 L308.5,-491.5 L143,-491.5 L114,-468.4 L114,-468.4 ZM234.5,-276.4 C194.1,-244.1 156.8,-214.2 151.8,-210 L142.5,-202.5 L142.5,-128.2 C142.5,-87.4 142.8,-52.4 143.1,-50.5 C143.7,-47.3 147.4,-44.1 185.2,-14 C208,4.1 239.2,29 254.5,41.3 L282.3,63.6 L295.4,63.3 L308.6,63 L308.5,-135.9 C308.5,-245.4 308.4,-334.9 308.2,-335 C308.1,-335.1 274.9,-308.7 234.5,-276.4" style="fill:url(#gradient_2);" />
		</g>
	</g>
</svg>